<svg xmlns="http://www.w3.org/2000/svg" width="290.63" height="289.026" viewBox="0 0 290.63 289.026">
  <g id="aprendizaje" transform="translate(0 -1.376)">
    <g id="Grupo_526" data-name="Grupo 526" transform="translate(0 1.376)">
      <path id="Trazado_533" data-name="Trazado 533" d="M121.2,76.751V47.205l-12.657-3.37c-.368-.979-.779-1.953-1.221-2.923L113.9,29.565,93.011,8.681,81.664,15.249c-.97-.443-1.944-.853-2.923-1.221L75.375,1.376H45.829l-3.37,12.657c-.979.368-1.953.779-2.923,1.221L28.194,8.681,7.31,29.565l6.568,11.347c-.443.97-.853,1.944-1.221,2.923L0,47.205V76.751l12.657,3.37c.368.979.779,1.953,1.221,2.923L7.31,94.391l20.884,20.884,11.347-6.568c.97.443,1.944.853,2.923,1.221l3.366,12.652H75.375l3.37-12.657c.979-.368,1.953-.779,2.923-1.221l11.347,6.568L113.9,94.387,107.331,83.04c.443-.97.853-1.944,1.221-2.923Zm-60.6,13.2a27.97,27.97,0,1,1,27.97-27.97A27.969,27.969,0,0,1,60.6,89.949Z" transform="translate(0 -1.376)" fill="#f6a117"/>
      <rect id="Rectángulo_132" data-name="Rectángulo 132" width="121.205" height="37.294" transform="translate(0 144.513)" fill="#f6a117"/>
      <path id="Trazado_534" data-name="Trazado 534" d="M340.325,156.517l-2.331-2.331A57.406,57.406,0,0,0,240,194.776V230.61h4.662a13.984,13.984,0,0,1,13.985-13.985v-4.662a45.012,45.012,0,0,0,31.83-13.183l5.464-5.464.48.639a45.015,45.015,0,0,0,36.012,18.008h10.125v4.662a13.984,13.984,0,0,1,13.985,13.985H361.2V184.567A29.236,29.236,0,0,0,340.325,156.517Z" transform="translate(-100.149 -58.127)" fill="#f6a117"/>
    </g>
    <path id="Trazado_535" data-name="Trazado 535" d="M358.743,345.926a32.492,32.492,0,0,0-25.42-22.726l-30.59-5.566v-2.415a46.7,46.7,0,0,0,22.428-31.373,18.6,18.6,0,0,0,.881-36.245v-5.324H311.259a40.548,40.548,0,0,1-32.282-16.134l-3.706-4.951-9.263,9.268a40.108,40.108,0,0,1-28.539,11.817h-4.662V247.6a18.6,18.6,0,0,0,.881,36.245,46.7,46.7,0,0,0,22.428,31.373v2.415l-30.59,5.561a32.5,32.5,0,0,0-25.42,22.731l-10.857,36.2H369.6Zm-130.6-80.34a9.293,9.293,0,0,1,4.662-8.027v16.055A9.293,9.293,0,0,1,228.145,265.586Zm31.467,60.891,12.717,9.538-9.515,9.51-6.172-18.512Zm19.812,3.207-13.589-10.191a46.442,46.442,0,0,0,27.178,0Zm19.812-3.207,2.965.541-6.172,18.512-9.515-9.51ZM330.7,265.586a9.293,9.293,0,0,1-4.662,8.027V257.558A9.293,9.293,0,0,1,330.7,265.586Zm-88.573,9.323V251.386A49.342,49.342,0,0,0,272.6,237.051l1.813-1.813A49.936,49.936,0,0,0,311.259,251.6h5.459v23.309a37.294,37.294,0,1,1-74.587,0Zm-40.352,97.9,7.263-24.2A23.193,23.193,0,0,1,227.2,332.374l20.185-3.669,11.361,34.086L279.424,342.1l20.684,20.684L311.469,328.7l20.185,3.669A23.214,23.214,0,0,1,349.811,348.6l7.258,24.2H201.779Z" transform="translate(-78.97 -91.726)" fill="#231f20"/>
    <path id="Trazado_536" data-name="Trazado 536" d="M80.632,114.64a32.309,32.309,0,0,0,19.892-6.759L94.836,100.5a23.087,23.087,0,0,1-14.2,4.82,23.309,23.309,0,1,1,23.309-23.309,23.1,23.1,0,0,1-4.6,13.9l7.477,5.571a32.635,32.635,0,1,0-26.19,13.16Z" transform="translate(-20.03 -20.03)" fill="#231f20"/>
    <path id="Trazado_537" data-name="Trazado 537" d="M409.264,47.993V64.71l-6.028-6.028-6.592,6.592,17.281,17.281,17.281-17.281-6.592-6.592-6.028,6.028V47.993A46.67,46.67,0,0,0,371.97,1.376H344V10.7h27.97A37.337,37.337,0,0,1,409.264,47.993Z" transform="translate(-143.546)" fill="#231f20"/>
    <path id="Trazado_538" data-name="Trazado 538" d="M24.287,392.626V375.909l6.028,6.028,6.592-6.592L19.625,358.064,2.344,375.345l6.592,6.592,6.028-6.028v16.717A46.67,46.67,0,0,0,61.58,439.243V429.92A37.337,37.337,0,0,1,24.287,392.626Z" transform="translate(-0.978 -148.841)" fill="#231f20"/>
    <rect id="Rectángulo_133" data-name="Rectángulo 133" width="121.205" height="9.323" transform="translate(0 141.227)" fill="#231f20"/>
    <rect id="Rectángulo_134" data-name="Rectángulo 134" width="121.205" height="9.323" transform="translate(0 178.521)" fill="#231f20"/>
    <rect id="Rectángulo_135" data-name="Rectángulo 135" width="55.941" height="9.323" transform="translate(0 159.874)" fill="#231f20"/>
    <path id="Trazado_539" data-name="Trazado 539" d="M112,273.376V282.7h55.941v-9.323H112Z" transform="translate(-46.736 -113.502)" fill="#231f20"/>
    <rect id="Rectángulo_136" data-name="Rectángulo 136" width="9.323" height="9.323" transform="translate(181.807 1.376)" fill="#231f20"/>
    <rect id="Rectángulo_137" data-name="Rectángulo 137" width="9.323" height="9.323" transform="translate(163.16 1.376)" fill="#231f20"/>
    <rect id="Rectángulo_138" data-name="Rectángulo 138" width="9.323" height="9.323" transform="translate(69.926 281.079)" fill="#231f20"/>
    <rect id="Rectángulo_139" data-name="Rectángulo 139" width="9.323" height="9.323" transform="translate(88.573 281.079)" fill="#231f20"/>
  </g>
</svg>
