<svg id="certificacion" xmlns="http://www.w3.org/2000/svg" width="325.239" height="325.234" viewBox="0 0 325.239 325.234">
  <g id="Grupo_528" data-name="Grupo 528" transform="translate(89.179 173.106)">
    <path id="Trazado_553" data-name="Trazado 553" d="M218.492,287.992,208,294.985V345.7h20.983V294.985Zm0,0" transform="translate(-160.788 -272.255)" fill="#f6a117"/>
    <path id="Trazado_554" data-name="Trazado 554" d="M298.229,337.433H272V263.992l26.229,3.829Zm0,0" transform="translate(-182.822 -263.992)" fill="#f6a117"/>
    <path id="Trazado_555" data-name="Trazado 555" d="M162.229,337.433H136V267.821l26.229-3.829Zm0,0" transform="translate(-136 -263.992)" fill="#f6a117"/>
  </g>
  <path id="Trazado_556" data-name="Trazado 556" d="M48,447.992H58.492v10.492H48Zm0,0" transform="translate(-16.525 -154.233)"/>
  <path id="Trazado_557" data-name="Trazado 557" d="M80,447.992H90.492v10.492H80Zm0,0" transform="translate(-27.542 -154.233)"/>
  <path id="Trazado_558" data-name="Trazado 558" d="M112,447.992h10.492v10.492H112Zm0,0" transform="translate(-38.559 -154.233)"/>
  <path id="Trazado_559" data-name="Trazado 559" d="M384,447.992h41.966v10.492H384Zm0,0" transform="translate(-132.202 -154.233)"/>
  <path id="Trazado_560" data-name="Trazado 560" d="M314.747,272.776V99.665a26.26,26.26,0,0,0-26.229-26.229H262.289V83.927h26.229a15.758,15.758,0,0,1,15.737,15.737V272.776H293.764V104.91a10.5,10.5,0,0,0-10.492-10.492H257.994l-1.747-10.492H251.8V41.961A15.758,15.758,0,0,0,236.06,26.224h-6.988a14.249,14.249,0,0,0-8.57-6.9L158.616,1.637a42.86,42.86,0,0,0-23.463,0L73.262,19.321A14.288,14.288,0,0,0,62.949,33a14.137,14.137,0,0,0,4.165,10.056l8.419,8.419A10.414,10.414,0,0,0,73.441,57.7V68.19A10.5,10.5,0,0,0,83.932,78.682V94.419H41.966A10.5,10.5,0,0,0,31.475,104.91V272.776H20.983V99.665A15.758,15.758,0,0,1,36.72,83.927H62.959V73.436H36.72A26.26,26.26,0,0,0,10.491,99.665V272.776H0V299a26.26,26.26,0,0,0,26.229,26.229H299.01A26.26,26.26,0,0,0,325.239,299V272.776ZM251.8,121.45a4.448,4.448,0,0,1-4.444,4.444h-1.6a4.448,4.448,0,0,1-4.444-4.444,4.545,4.545,0,0,1,.059-.727l4.385-26.3h1.6l4.38,26.293a4.222,4.222,0,0,1,.064.738ZM73.441,33a3.747,3.747,0,0,1,2.707-3.589l61.889-17.684a32.4,32.4,0,0,1,17.694,0l50.742,14.5H188.848V36.715h29.3L207.659,47.207H86.1L74.532,35.634A3.712,3.712,0,0,1,73.441,33ZM83.927,57.7h125.9V68.19H83.933Zm40.45,116.058,14.27,14.267-17.994,12V174.837ZM110.162,241.3H62.949V211.212a26.35,26.35,0,0,1,18.957-25.2l28.255-8.153Zm10.492-28.667,26.229-17.484,26.229,17.484V241.3H120.653Zm48.734-38.877,3.724,1.076v25.189l-17.994-12Zm14.216,4.1,28.255,8.153a26.35,26.35,0,0,1,18.957,25.2V241.3H183.6Zm-20.983-12.169-15.737,15.737-15.737-15.737v-6.163a41.632,41.632,0,0,0,31.475,0Zm-15.737-13.565a31.506,31.506,0,0,1-31.475-31.475V78.681h62.949v41.966A31.506,31.506,0,0,1,146.882,152.123ZM94.424,104.91a10.5,10.5,0,0,1,10.492-10.492V115.4A10.5,10.5,0,0,1,94.424,104.91Zm94.424-10.492a10.492,10.492,0,0,1,0,20.983Zm10.492-7.574a20.754,20.754,0,0,0-10.492-2.917V78.681H199.34Zm-94.424-8.163v5.246a20.754,20.754,0,0,0-10.492,2.917V78.681ZM314.747,299a15.758,15.758,0,0,1-15.737,15.737H26.229A15.758,15.758,0,0,1,10.492,299V283.267H118.565a40.762,40.762,0,0,0,27.42,10.492h33.273a40.762,40.762,0,0,0,27.42-10.492h66.1V272.776H202.413l-1.537,1.537a30.369,30.369,0,0,1-21.624,8.955H145.98a30.378,30.378,0,0,1-21.624-8.955l-1.532-1.537H41.965V104.91H83.932a21,21,0,0,0,20.983,20.983h.361a41.914,41.914,0,0,0,15.376,27.461v10.561L79,175.933a36.881,36.881,0,0,0-26.544,35.278v40.581H241.306V211.212a36.9,36.9,0,0,0-26.544-35.284L173.11,163.915V153.355a41.936,41.936,0,0,0,15.376-27.461h.361a21,21,0,0,0,20.983-20.983V78.681A10.5,10.5,0,0,0,220.322,68.19V57.7a10.414,10.414,0,0,0-2.093-6.227l8.419-8.419a14.081,14.081,0,0,0,3.614-6.337h5.8a5.256,5.256,0,0,1,5.246,5.246V83.927h-4.444l-5.848,35.079a15.315,15.315,0,0,0-.2,2.444,14.95,14.95,0,0,0,14.936,14.936h1.6A14.925,14.925,0,0,0,262.084,119L259.74,104.91h23.532V283.267h31.475Zm0,0" transform="translate(0 0)" fill="#231f20"/>
</svg>
