<svg xmlns="http://www.w3.org/2000/svg" width="290.63" height="290.63" viewBox="0 0 290.63 290.63">
  <g id="clases_practicas" transform="translate(1450 -1907)">
    <g id="Grupo_527" data-name="Grupo 527" transform="translate(-1354.261 1980.459)">
      <path id="Trazado_540" data-name="Trazado 540" d="M43.913,16.671,27,36.964,45.75,51.026l7.388-29.541Z" transform="translate(-0.862 -16.671)" fill="#f6a117"/>
      <path id="Trazado_541" data-name="Trazado 541" d="M30.649,16.671,47.562,36.964,28.812,51.026,21.424,21.485Z" transform="translate(-21.424 -16.671)" fill="#f6a117"/>
      <path id="Trazado_542" data-name="Trazado 542" d="M107.376,54.438v18.75H23V31h93.752V54.438Z" transform="translate(-15.612 36.168)" fill="#f6a117"/>
    </g>
    <path id="Trazado_543" data-name="Trazado 543" d="M277.567,111.376H251.786a2.344,2.344,0,0,1-1.875-3.75A68.36,68.36,0,0,0,263.5,66.844V64.5a23.465,23.465,0,0,0-23.438-23.438,9.385,9.385,0,0,0-9.375,9.375v8.086a43.672,43.672,0,0,1-22.013,37.932l-26.11,14.921H169.753V102H85.287a46.8,46.8,0,1,0-18.661,14.808v78.944H169.753v-9.375h13.163l23.438,9.375h71.214a14,14,0,0,0,10.406-23.438,13.848,13.848,0,0,0,0-18.75,13.848,13.848,0,0,0,0-18.75,14,14,0,0,0-10.406-23.438ZM10.375,73.876A37.5,37.5,0,1,1,77.089,97.332,37.484,37.484,0,0,0,63.35,86.654a23.438,23.438,0,1,0-30.947,0A37.583,37.583,0,0,0,18.663,97.332a37.284,37.284,0,0,1-8.288-23.457Zm23.438-4.688A14.063,14.063,0,1,1,47.876,83.251,14.08,14.08,0,0,1,33.813,69.188Zm-8.4,34.646a28.114,28.114,0,0,1,44.926,0,37.221,37.221,0,0,1-44.926,0ZM76,111.376h65.626v75H76Zm84.376,75H151v-75h9.375Zm117.19,0H208.154L184.716,177H169.753V120.752h15.31L213.329,104.6a53.07,53.07,0,0,0,26.738-46.074V50.438A14.08,14.08,0,0,1,254.129,64.5v2.344a58.957,58.957,0,0,1-11.724,35.162,11.72,11.72,0,0,0,9.38,18.746h25.782a4.688,4.688,0,1,1,0,9.375H254.129V139.5h23.438a4.688,4.688,0,1,1,0,9.375H254.129v9.375h23.438a4.688,4.688,0,1,1,0,9.375H254.129V177h23.438a4.688,4.688,0,1,1,0,9.375Z" transform="translate(-1451 2001.877)" fill="#231f20"/>
    <path id="Trazado_544" data-name="Trazado 544" d="M89.876,101.752A46.876,46.876,0,1,0,43,54.876,46.929,46.929,0,0,0,89.876,101.752ZM67.413,84.834a28.114,28.114,0,0,1,44.926,0,37.221,37.221,0,0,1-44.926,0Zm8.4-34.646A14.063,14.063,0,1,1,89.876,64.251,14.08,14.08,0,0,1,75.813,50.188ZM89.876,17.375a37.458,37.458,0,0,1,29.213,60.957A37.484,37.484,0,0,0,105.35,67.654a23.438,23.438,0,1,0-30.947,0A37.583,37.583,0,0,0,60.663,78.332,37.458,37.458,0,0,1,89.876,17.375Z" transform="translate(-1296.122 1931.813)" fill="#231f20"/>
    <path id="Trazado_545" data-name="Trazado 545" d="M78.626,132.252A65.626,65.626,0,1,0,13,66.626,65.7,65.7,0,0,0,78.626,132.252Zm0-9.375a56.066,56.066,0,0,1-40.3-17.1,42.163,42.163,0,0,1,80.608,0A56.066,56.066,0,0,1,78.626,122.877Zm-18.75-75a18.75,18.75,0,1,1,18.75,18.75A18.769,18.769,0,0,1,59.876,47.876Zm18.75-37.5A56.173,56.173,0,0,1,125.75,97.241,51.321,51.321,0,0,0,96.284,69.734a28.123,28.123,0,1,0-35.321,0A51.306,51.306,0,0,0,31.5,97.241,56.178,56.178,0,0,1,78.626,10.375Z" transform="translate(-1406.749 1906)" fill="#231f20"/>
    <path id="Trazado_546" data-name="Trazado 546" d="M23,31h9.375v9.375H23Z" transform="translate(-1369.873 2016.627)" fill="#231f20"/>
    <path id="Trazado_547" data-name="Trazado 547" d="M27,31h75v9.375H27Z" transform="translate(-1355.123 2016.627)" fill="#231f20"/>
    <path id="Trazado_548" data-name="Trazado 548" d="M23,35h93.752v9.375H23Z" transform="translate(-1369.873 2031.378)" fill="#231f20"/>
    <path id="Trazado_549" data-name="Trazado 549" d="M23,39h84.376v9.375H23Z" transform="translate(-1369.873 2046.128)" fill="#231f20"/>
    <path id="Trazado_550" data-name="Trazado 550" d="M19,57h9.375v9.375H19Z" transform="translate(-1384.624 2112.504)"/>
    <path id="Trazado_551" data-name="Trazado 551" d="M23,57h9.375v9.375H23Z" transform="translate(-1369.873 2112.504)"/>
    <path id="Trazado_552" data-name="Trazado 552" d="M27,57h9.375v9.375H27Z" transform="translate(-1355.123 2112.504)"/>
  </g>
</svg>
