<svg xmlns="http://www.w3.org/2000/svg" width="313.239" height="313.239" viewBox="0 0 313.239 313.239">
  <g id="docentes" transform="translate(1907 -1884)">
    <path id="Trazado_481" data-name="Trazado 481" d="M278.873,81.836H251.844a30.265,30.265,0,0,0-57.09,0H167.724a25.239,25.239,0,0,0-5.052.51V46.47a25.29,25.29,0,0,0-25.261-25.261H110.381a30.265,30.265,0,0,0-57.09,0H26.261A25.29,25.29,0,0,0,1,46.47V107.1a25.29,25.29,0,0,0,25.261,25.261H77.814v-10.1H26.261A15.175,15.175,0,0,1,11.1,107.1V46.47A15.175,15.175,0,0,1,26.261,31.313H51.522a30.256,30.256,0,0,0,11.64,23.831,50.573,50.573,0,0,0-31.849,46.9v10.1H132.358v-10.1a50.573,50.573,0,0,0-31.849-46.9,30.256,30.256,0,0,0,11.64-23.831h25.261A15.175,15.175,0,0,1,152.567,46.47V87.019a25.158,25.158,0,0,0-10.1,20.078v2.935h10.1V107.1A15.175,15.175,0,0,1,167.724,91.94h25.261a30.261,30.261,0,0,0,11.625,23.821,50.569,50.569,0,0,0-23.2,18.658l8.372,5.653a40.382,40.382,0,0,1,21.831-16.026l-3.082,38.624H197.315v10.1h76.506v-10.1a50.573,50.573,0,0,0-31.849-46.9,30.256,30.256,0,0,0,11.64-23.831h25.261A15.175,15.175,0,0,1,294.03,107.1v60.627a15.175,15.175,0,0,1-15.157,15.157H267.238L243.508,198.7V182.881H197.315v10.1H233.4V217.58l36.9-24.594h8.574a25.29,25.29,0,0,0,25.261-25.261V107.1a25.29,25.29,0,0,0-25.261-25.261ZM83.245,61.7l3.223,40.347H77.2L80.426,61.7c.47-.015.935-.071,1.41-.071S82.776,61.682,83.245,61.7Zm-13.09,1.667-3.092,38.68H41.418A40.48,40.48,0,0,1,70.155,63.365Zm52.1,38.68H96.609l-3.087-38.68A40.482,40.482,0,0,1,122.254,102.045ZM81.836,51.522a20.209,20.209,0,1,1,20.209-20.209A20.229,20.229,0,0,1,81.836,51.522ZM221.884,122.34c.475-.015.94-.086,1.415-.086s.94.056,1.41.071l3.223,40.347h-9.266Zm41.833,40.332H238.071l-3.087-38.68A40.482,40.482,0,0,1,263.717,162.672ZM223.3,112.149A20.209,20.209,0,1,1,243.508,91.94,20.229,20.229,0,0,1,223.3,112.149Z" transform="translate(-1908 1883)" fill="#231f20"/>
    <path id="Trazado_482" data-name="Trazado 482" d="M55,21H65.1V31.1H55Z" transform="translate(-1689.179 1964.045)"/>
    <path id="Trazado_483" data-name="Trazado 483" d="M55,25H65.1V35.1H55Z" transform="translate(-1689.179 1980.254)"/>
    <path id="Trazado_484" data-name="Trazado 484" d="M5,9H15.1V19.1H5Z" transform="translate(-1891.791 1915.418)"/>
    <path id="Trazado_485" data-name="Trazado 485" d="M5,13H15.1V23.1H5Z" transform="translate(-1891.791 1931.627)"/>
    <path id="Trazado_486" data-name="Trazado 486" d="M89.076,65.868l-7.144-7.144-10.2,10.2-8.013-8.013,10.2-10.2-7.144-7.144-10.2,10.2-5.052-5.052L7.714,92.528A22.914,22.914,0,0,0,40.12,124.933L83.928,81.12l-5.052-5.052Zm-56.1,51.922A12.811,12.811,0,1,1,14.858,99.672L51.522,63,69.64,81.12Z" transform="translate(-1908 2055.492)" fill="#231f20"/>
    <path id="Trazado_487" data-name="Trazado 487" d="M86.784,172.567a75.784,75.784,0,1,1,75.784-75.784A75.87,75.87,0,0,1,86.784,172.567Zm0-126.306a50.522,50.522,0,1,0,50.522,50.522A50.58,50.58,0,0,0,86.784,46.261Z" transform="translate(-1867.478 1964.045)" fill="#f6a117"/>
    <path id="Trazado_488" data-name="Trazado 488" d="M70.575,136.149a55.575,55.575,0,1,1,55.575-55.575A55.64,55.64,0,0,1,70.575,136.149Zm0-101.045a45.47,45.47,0,1,0,45.47,45.47A45.522,45.522,0,0,0,70.575,35.1Z" transform="translate(-1851.269 1980.254)" fill="#231f20"/>
    <path id="Trazado_489" data-name="Trazado 489" d="M145.1,45H54.157A15.175,15.175,0,0,0,39,60.157v60.627A15.175,15.175,0,0,0,54.157,135.94H145.1a15.175,15.175,0,0,0,15.157-15.157V60.157A15.175,15.175,0,0,0,145.1,45Zm5.052,75.784a5.057,5.057,0,0,1-5.052,5.052H54.157a5.057,5.057,0,0,1-5.052-5.052V60.157A5.057,5.057,0,0,1,54.157,55.1H145.1a5.057,5.057,0,0,1,5.052,5.052Z" transform="translate(-1754.015 2061.299)" fill="#231f20"/>
    <path id="Trazado_490" data-name="Trazado 490" d="M113.731,59.1h-10.1V89.418h-10.1V69.209h-10.1V89.418h-10.1v-10.1h-10.1v10.1H53.1V49H43V99.522h80.836v-10.1h-10.1Z" transform="translate(-1737.806 2077.508)" fill="#231f20"/>
  </g>
</svg>
