<svg id="docentes" xmlns="http://www.w3.org/2000/svg" width="290.63" height="290.613" viewBox="0 0 290.63 290.613">
  <path id="Trazado_514" data-name="Trazado 514" d="M196.486,35H90.022l7.129,16.639a11.212,11.212,0,0,1,.9,4.406v.586a11.181,11.181,0,0,1-21.561,4.153L66.183,35H18.374A9.384,9.384,0,0,0,9,44.374v93.743a9.384,9.384,0,0,0,9.374,9.374H196.486a9.384,9.384,0,0,0,9.374-9.374V44.374A9.384,9.384,0,0,0,196.486,35Z" transform="translate(28.512 124.372)" fill="#f6a117"/>
  <path id="Trazado_515" data-name="Trazado 515" d="M268.179,141.622H244.743V94.582A54.218,54.218,0,0,0,271.91,66.763l18.374-42.878a16.4,16.4,0,1,0-30.152-12.932L241.753,53.841a21.023,21.023,0,0,1-4.861,6.932,27.859,27.859,0,0,0,3.164-12.894,28.123,28.123,0,1,0-48.535,19.288,50.325,50.325,0,0,0-26.168,11.924c-.319-.1-.619-.244-.937-.342a28.126,28.126,0,1,0-36.2,0c-.319.1-.623.239-.937.342a50.309,50.309,0,0,0-26.168-11.924,28.118,28.118,0,1,0-45.376-6.384,21.023,21.023,0,0,1-4.861-6.932L32.5,10.963a16.406,16.406,0,0,0-30.316.356,16.27,16.27,0,0,0,.159,12.557L20.712,66.763A54.252,54.252,0,0,0,47.878,94.582v47.04H24.447A23.462,23.462,0,0,0,1.012,165.058V268.175a23.462,23.462,0,0,0,23.436,23.436H268.179a23.462,23.462,0,0,0,23.436-23.436V165.058a23.462,23.462,0,0,0-23.436-23.436ZM211.933,29.13a18.749,18.749,0,1,1-18.749,18.749A18.767,18.767,0,0,1,211.933,29.13ZM198.388,76h23.979a30.435,30.435,0,0,0,28.006-18.463l18.383-42.9a7.09,7.09,0,0,1,9.271-3.665,7.021,7.021,0,0,1,3.647,9.215L263.3,63.075A44.738,44.738,0,0,1,238.374,87.1l-3,1.158v53.368H207.246v-4.687a60.975,60.975,0,0,0-32.1-53.654A40.924,40.924,0,0,1,198.388,76Zm-23.951,42.184v23.436h-55.4l3.778-22.667-9.248-1.537-4.912,29.477,13.7,31.962a6.538,6.538,0,0,1,.525,2.555V182a6.493,6.493,0,0,1-12.519,2.414L97.9,153.274a43.771,43.771,0,0,1-3.15-16.339,51.6,51.6,0,0,1,33.157-48.1,18.717,18.717,0,0,0,36.8,0,51.6,51.6,0,0,1,33.157,48.1v4.687H183.811V118.186Zm-43.609,70.307h10.8v56.246H66.632V188.493h35.318a15.807,15.807,0,0,0,28.878,0ZM146.313,85.376a51.4,51.4,0,0,1,9.285.881,9.322,9.322,0,0,1-18.57,0A51.4,51.4,0,0,1,146.313,85.376ZM127.565,57.253A18.749,18.749,0,1,1,146.313,76,18.767,18.767,0,0,1,127.565,57.253ZM80.693,29.13A18.749,18.749,0,1,1,61.945,47.879,18.767,18.767,0,0,1,80.693,29.13ZM54.253,87.1A44.767,44.767,0,0,1,29.331,63.075l-18.378-42.9a7.02,7.02,0,0,1,3.67-9.22,7.127,7.127,0,0,1,9.252,3.684l18.378,42.9A30.44,30.44,0,0,0,70.26,76H94.239a40.929,40.929,0,0,1,23.234,7.274A60.993,60.993,0,0,0,85.38,136.935c0,1.57.084,3.136.22,4.687H57.257V88.254ZM10.386,197.868h4.687a4.692,4.692,0,0,1,4.687,4.687v28.123a4.692,4.692,0,0,1-4.687,4.687H10.386Zm0,70.307V244.739h4.687a14.079,14.079,0,0,0,14.061-14.061V202.555a14.079,14.079,0,0,0-14.061-14.061H10.386V165.058A14.079,14.079,0,0,1,24.447,151H87.3a54.072,54.072,0,0,0,1.894,5.761l8.948,22.362H57.257v74.994H151V179.119H132.022a15.713,15.713,0,0,0-1.05-3.956L120.614,151h124.13v131.24H24.447A14.079,14.079,0,0,1,10.386,268.175Zm271.855,0a14.079,14.079,0,0,1-14.061,14.061H254.118V151h14.061a14.079,14.079,0,0,1,14.061,14.061Z" transform="translate(-0.997 -0.998)" fill="#231f20"/>
  <path id="Trazado_516" data-name="Trazado 516" d="M57,43h9.374V80.5H57Z" transform="translate(205.495 153.87)" fill="#231f20"/>
  <path id="Trazado_517" data-name="Trazado 517" d="M35,39H91.246v9.374H35Z" transform="translate(124.378 139.121)" fill="#231f20"/>
  <path id="Trazado_518" data-name="Trazado 518" d="M35,43H91.246v9.374H35Z" transform="translate(124.378 153.87)" fill="#231f20"/>
  <path id="Trazado_519" data-name="Trazado 519" d="M35,47h9.374v9.374H35Z" transform="translate(124.378 168.618)" fill="#231f20"/>
  <path id="Trazado_520" data-name="Trazado 520" d="M39,47H76.5v9.374H39Z" transform="translate(139.127 168.618)" fill="#231f20"/>
  <path id="Trazado_521" data-name="Trazado 521" d="M35,51H91.246v9.374H35Z" transform="translate(124.378 183.367)" fill="#231f20"/>
</svg>
