<svg xmlns="http://www.w3.org/2000/svg" width="313.238" height="313.239" viewBox="0 0 313.238 313.239">
  <g id="empresas" transform="translate(-0.001)">
    <g id="Grupo_521" data-name="Grupo 521" transform="translate(0.001)">
      <path id="Trazado_501" data-name="Trazado 501" d="M175.2,101.044H124.682v-29.1a40.418,40.418,0,1,1,50.521,0v29.1Z" transform="translate(6.676)" fill="#f6a117"/>
      <path id="Trazado_502" data-name="Trazado 502" d="M179.675,74.332H154.413V53.194a15.157,15.157,0,1,0-10.1,0V74.332H119.047v10.1h60.627v-10.1ZM149.362,33.914a5.052,5.052,0,1,1-5.052,5.052A5.057,5.057,0,0,1,149.362,33.914Z" transform="translate(7.257 1.452)" fill="#231f20"/>
      <path id="Trazado_503" data-name="Trazado 503" d="M196.4,205.519l-5.477,8.5a58,58,0,0,1,26.731,48.905V290.6H154.874l36.83-63.133-8.735-5.093-31,53.149-31-53.148-8.735,5.093L149.075,290.6H86.3V262.924a58,58,0,0,1,26.731-48.911l-5.477-8.5a68.089,68.089,0,0,0-31.359,57.409v37.785H227.758V262.924A68.071,68.071,0,0,0,196.4,205.519Z" transform="translate(4.644 12.53)" fill="#231f20"/>
      <path id="Trazado_504" data-name="Trazado 504" d="M94.8,165.3a55.776,55.776,0,1,0,55.776-55.776A55.836,55.836,0,0,0,94.8,165.3Zm101.449,0a45.673,45.673,0,1,1-45.673-45.673A45.729,45.729,0,0,1,196.245,165.3Z" transform="translate(5.778 6.677)" fill="#231f20"/>
      <path id="Trazado_505" data-name="Trazado 505" d="M86.967,185.364A45.658,45.658,0,1,1,109.743,112.6l7.826-6.4a55.834,55.834,0,1,0-27.833,88.883Z" transform="translate(1.133 5.226)" fill="#231f20"/>
      <path id="Trazado_506" data-name="Trazado 506" d="M10.106,239.113A58,58,0,0,1,36.837,190.2l-5.477-8.5A68.093,68.093,0,0,0,0,239.113V276.9H65.68v-10.1H10.106Z" transform="translate(-0.001 11.078)" fill="#231f20"/>
      <path id="Trazado_507" data-name="Trazado 507" d="M281.817,141.491A55.771,55.771,0,0,0,182.859,106.2l7.826,6.4a45.721,45.721,0,1,1,22.776,72.769l-2.784,9.71a55.656,55.656,0,0,0,71.14-53.585Z" transform="translate(11.147 5.226)" fill="#231f20"/>
      <path id="Trazado_508" data-name="Trazado 508" d="M267.945,181.71l-5.477,8.5A58,58,0,0,1,289.2,239.114v27.681H228.572v10.1H299.3V239.114A68.077,68.077,0,0,0,267.945,181.71Z" transform="translate(13.934 11.078)" fill="#231f20"/>
    </g>
  </g>
</svg>
