<svg xmlns="http://www.w3.org/2000/svg" width="290.625" height="290.812" viewBox="0 0 290.625 290.812">
  <g id="universidades" transform="translate(-0.094)">
    <g id="Grupo_520" data-name="Grupo 520">
      <path id="Trazado_478" data-name="Trazado 478" d="M243.844,253.313h-93.75V23.625h93.75Z" fill="#f6a117"/>
      <path id="Trazado_479" data-name="Trazado 479" d="M267.281,262.688V117.572a14.274,14.274,0,0,0-14.259-14.259h-9.178v9.375h9.178a4.89,4.89,0,0,1,4.884,4.884V262.688h-225V117.572a4.89,4.89,0,0,1,4.884-4.884h9.178v131.25H42.28v9.375H248.531v-9.375H140.719V112.688h9.375v-9.375h-9.375V50.273L46.969,76.312v27H37.79a14.274,14.274,0,0,0-14.259,14.259V262.687H.094v15.52a12.617,12.617,0,0,0,12.6,12.605H278.11a12.618,12.618,0,0,0,12.609-12.605v-15.52ZM56.344,83.438l75-20.836V243.938h-75S56.344,83.438,56.344,83.438Zm225,194.77a3.236,3.236,0,0,1-3.23,3.23H12.7a3.236,3.236,0,0,1-3.23-3.23v-6.145H281.344Z" fill="#231f20"/>
      <path id="Trazado_480" data-name="Trazado 480" d="M168.844,17.784,196.969,9.75l28.125,8.034v5.841h9.375V10.716L196.969,0l-37.5,10.716V23.625h9.375Z" fill="#231f20"/>
      <rect id="Rectángulo_71" data-name="Rectángulo 71" width="9.375" height="9.375" transform="translate(173.531 42.375)" fill="#231f20"/>
      <rect id="Rectángulo_72" data-name="Rectángulo 72" width="9.375" height="9.375" transform="translate(192.281 42.375)" fill="#231f20"/>
      <rect id="Rectángulo_73" data-name="Rectángulo 73" width="9.375" height="9.375" transform="translate(211.031 42.375)" fill="#231f20"/>
      <rect id="Rectángulo_74" data-name="Rectángulo 74" width="9.375" height="9.375" transform="translate(173.531 61.125)" fill="#231f20"/>
      <rect id="Rectángulo_75" data-name="Rectángulo 75" width="9.375" height="9.375" transform="translate(192.281 61.125)" fill="#231f20"/>
      <rect id="Rectángulo_76" data-name="Rectángulo 76" width="9.375" height="9.375" transform="translate(211.031 61.125)" fill="#231f20"/>
      <rect id="Rectángulo_77" data-name="Rectángulo 77" width="9.375" height="9.375" transform="translate(173.531 79.875)" fill="#231f20"/>
      <rect id="Rectángulo_78" data-name="Rectángulo 78" width="9.375" height="9.375" transform="translate(192.281 79.875)" fill="#231f20"/>
      <rect id="Rectángulo_79" data-name="Rectángulo 79" width="9.375" height="9.375" transform="translate(211.031 79.875)" fill="#231f20"/>
      <rect id="Rectángulo_80" data-name="Rectángulo 80" width="9.375" height="9.375" transform="translate(173.531 98.625)" fill="#231f20"/>
      <rect id="Rectángulo_81" data-name="Rectángulo 81" width="9.375" height="9.375" transform="translate(192.281 98.625)" fill="#231f20"/>
      <rect id="Rectángulo_82" data-name="Rectángulo 82" width="9.375" height="9.375" transform="translate(211.031 98.625)" fill="#231f20"/>
      <rect id="Rectángulo_83" data-name="Rectángulo 83" width="9.375" height="9.375" transform="translate(173.531 117.375)" fill="#231f20"/>
      <rect id="Rectángulo_84" data-name="Rectángulo 84" width="9.375" height="9.375" transform="translate(192.281 117.375)" fill="#231f20"/>
      <rect id="Rectángulo_85" data-name="Rectángulo 85" width="9.375" height="9.375" transform="translate(211.031 117.375)" fill="#231f20"/>
      <rect id="Rectángulo_86" data-name="Rectángulo 86" width="9.375" height="9.375" transform="translate(173.531 136.125)" fill="#231f20"/>
      <rect id="Rectángulo_87" data-name="Rectángulo 87" width="9.375" height="9.375" transform="translate(192.281 136.125)" fill="#231f20"/>
      <rect id="Rectángulo_88" data-name="Rectángulo 88" width="9.375" height="9.375" transform="translate(211.031 136.125)" fill="#231f20"/>
      <rect id="Rectángulo_89" data-name="Rectángulo 89" width="9.375" height="9.375" transform="translate(173.531 154.875)" fill="#231f20"/>
      <rect id="Rectángulo_90" data-name="Rectángulo 90" width="9.375" height="9.375" transform="translate(192.281 154.875)" fill="#231f20"/>
      <rect id="Rectángulo_91" data-name="Rectángulo 91" width="9.375" height="9.375" transform="translate(211.031 154.875)" fill="#231f20"/>
      <rect id="Rectángulo_92" data-name="Rectángulo 92" width="9.375" height="9.375" transform="translate(173.531 173.625)" fill="#231f20"/>
      <rect id="Rectángulo_93" data-name="Rectángulo 93" width="9.375" height="9.375" transform="translate(192.281 173.625)" fill="#231f20"/>
      <rect id="Rectángulo_94" data-name="Rectángulo 94" width="9.375" height="9.375" transform="translate(211.031 173.625)" fill="#231f20"/>
      <rect id="Rectángulo_95" data-name="Rectángulo 95" width="9.375" height="9.375" transform="translate(173.531 192.375)" fill="#231f20"/>
      <rect id="Rectángulo_96" data-name="Rectángulo 96" width="9.375" height="9.375" transform="translate(192.281 192.375)" fill="#231f20"/>
      <rect id="Rectángulo_97" data-name="Rectángulo 97" width="9.375" height="9.375" transform="translate(211.031 192.375)" fill="#231f20"/>
      <rect id="Rectángulo_98" data-name="Rectángulo 98" width="9.375" height="9.375" transform="translate(173.531 211.125)" fill="#231f20"/>
      <rect id="Rectángulo_99" data-name="Rectángulo 99" width="9.375" height="9.375" transform="translate(192.281 211.125)" fill="#231f20"/>
      <rect id="Rectángulo_100" data-name="Rectángulo 100" width="9.375" height="9.375" transform="translate(211.031 211.125)" fill="#231f20"/>
      <rect id="Rectángulo_101" data-name="Rectángulo 101" width="9.375" height="9.375" transform="translate(89.156 79.875)" fill="#231f20"/>
      <rect id="Rectángulo_102" data-name="Rectángulo 102" width="9.375" height="9.375" transform="translate(107.906 79.875)" fill="#231f20"/>
      <rect id="Rectángulo_103" data-name="Rectángulo 103" width="9.375" height="9.375" transform="translate(70.406 98.625)" fill="#231f20"/>
      <rect id="Rectángulo_104" data-name="Rectángulo 104" width="9.375" height="9.375" transform="translate(89.156 98.625)" fill="#231f20"/>
      <rect id="Rectángulo_105" data-name="Rectángulo 105" width="9.375" height="9.375" transform="translate(107.906 98.625)" fill="#231f20"/>
      <rect id="Rectángulo_106" data-name="Rectángulo 106" width="9.375" height="9.375" transform="translate(70.406 117.375)" fill="#231f20"/>
      <rect id="Rectángulo_107" data-name="Rectángulo 107" width="9.375" height="9.375" transform="translate(89.156 117.375)" fill="#231f20"/>
      <rect id="Rectángulo_108" data-name="Rectángulo 108" width="9.375" height="9.375" transform="translate(107.906 117.375)" fill="#231f20"/>
      <rect id="Rectángulo_109" data-name="Rectángulo 109" width="9.375" height="9.375" transform="translate(70.406 136.125)" fill="#231f20"/>
      <rect id="Rectángulo_110" data-name="Rectángulo 110" width="9.375" height="9.375" transform="translate(89.156 136.125)" fill="#231f20"/>
      <rect id="Rectángulo_111" data-name="Rectángulo 111" width="9.375" height="9.375" transform="translate(107.906 136.125)" fill="#231f20"/>
      <rect id="Rectángulo_112" data-name="Rectángulo 112" width="9.375" height="9.375" transform="translate(70.406 154.875)" fill="#231f20"/>
      <rect id="Rectángulo_113" data-name="Rectángulo 113" width="9.375" height="9.375" transform="translate(89.156 154.875)" fill="#231f20"/>
      <rect id="Rectángulo_114" data-name="Rectángulo 114" width="9.375" height="9.375" transform="translate(107.906 154.875)" fill="#231f20"/>
      <rect id="Rectángulo_115" data-name="Rectángulo 115" width="9.375" height="9.375" transform="translate(70.406 173.625)" fill="#231f20"/>
      <rect id="Rectángulo_116" data-name="Rectángulo 116" width="9.375" height="9.375" transform="translate(89.156 173.625)" fill="#231f20"/>
      <rect id="Rectángulo_117" data-name="Rectángulo 117" width="9.375" height="9.375" transform="translate(107.906 173.625)" fill="#231f20"/>
      <rect id="Rectángulo_118" data-name="Rectángulo 118" width="9.375" height="9.375" transform="translate(70.406 192.375)" fill="#231f20"/>
      <rect id="Rectángulo_119" data-name="Rectángulo 119" width="9.375" height="9.375" transform="translate(89.156 192.375)" fill="#231f20"/>
      <rect id="Rectángulo_120" data-name="Rectángulo 120" width="9.375" height="9.375" transform="translate(107.906 192.375)" fill="#231f20"/>
      <rect id="Rectángulo_121" data-name="Rectángulo 121" width="9.375" height="9.375" transform="translate(70.406 211.125)" fill="#231f20"/>
      <rect id="Rectángulo_122" data-name="Rectángulo 122" width="9.375" height="9.375" transform="translate(89.156 211.125)" fill="#231f20"/>
      <rect id="Rectángulo_123" data-name="Rectángulo 123" width="9.375" height="9.375" transform="translate(107.906 211.125)" fill="#231f20"/>
    </g>
  </g>
</svg>
