<svg id="videos_podcast" xmlns="http://www.w3.org/2000/svg" width="302.239" height="302.239" viewBox="0 0 302.239 302.239">
  <g id="Grupo_522" data-name="Grupo 522">
    <rect id="Rectángulo_124" data-name="Rectángulo 124" width="155.994" height="107.246" transform="translate(19.5 58.498)" fill="#f6a117"/>
    <path id="Trazado_509" data-name="Trazado 509" d="M0,0V302.239H302.239V0ZM292.489,9.75V39H9.75V9.75ZM9.75,292.489V48.748H292.489V292.489Z" fill="#231f20"/>
    <circle id="Elipse_7" data-name="Elipse 7" cx="4.875" cy="4.875" r="4.875" transform="translate(19.5 19.5)" fill="#231f20"/>
    <circle id="Elipse_8" data-name="Elipse 8" cx="4.875" cy="4.875" r="4.875" transform="translate(34.123 19.5)" fill="#231f20"/>
    <circle id="Elipse_9" data-name="Elipse 9" cx="4.875" cy="4.875" r="4.875" transform="translate(48.748 19.5)" fill="#231f20"/>
    <path id="Trazado_510" data-name="Trazado 510" d="M76.19,82.267v55.8l48.826-27.9Zm9.75,16.808,19.421,11.1-19.421,11.1Z" transform="translate(1.807 1.951)" fill="#333"/>
    <rect id="Rectángulo_125" data-name="Rectángulo 125" width="97.496" height="9.75" transform="translate(185.243 58.498)" fill="#231f20"/>
    <rect id="Rectángulo_126" data-name="Rectángulo 126" width="97.496" height="9.75" transform="translate(185.243 82.872)" fill="#231f20"/>
    <rect id="Rectángulo_127" data-name="Rectángulo 127" width="97.496" height="9.75" transform="translate(185.243 107.246)" fill="#231f20"/>
    <rect id="Rectángulo_128" data-name="Rectángulo 128" width="97.496" height="9.75" transform="translate(185.243 131.62)" fill="#231f20"/>
    <rect id="Rectángulo_129" data-name="Rectángulo 129" width="97.496" height="9.75" transform="translate(185.243 155.994)" fill="#231f20"/>
    <rect id="Rectángulo_130" data-name="Rectángulo 130" width="263.241" height="9.75" transform="translate(19.5 180.368)" fill="#231f20"/>
    <path id="Trazado_511" data-name="Trazado 511" d="M97.045,200h-78v53.623h78Zm-9.75,43.873H28.8V209.75h58.5S87.295,243.873,87.295,243.873Z" transform="translate(0.452 4.743)" fill="#333"/>
    <rect id="Rectángulo_131" data-name="Rectángulo 131" width="263.241" height="9.75" transform="translate(19.5 272.99)" fill="#231f20"/>
    <path id="Trazado_512" data-name="Trazado 512" d="M109.524,200v53.623h78V200Zm68.247,43.873h-58.5V209.75h58.5Z" transform="translate(2.597 4.743)" fill="#333"/>
    <path id="Trazado_513" data-name="Trazado 513" d="M200,253.623h78V200H200Zm9.75-43.873h58.5v34.123h-58.5V209.75Z" transform="translate(4.743 4.743)" fill="#231f20"/>
  </g>
</svg>
